<?xml version="1.0" encoding="UTF-8"?>
<svg version="1.1" xmlns="http://www.w3.org/2000/svg" width="38" height="38">
<path d="M0 0 C12.54 0 25.08 0 38 0 C38 12.54 38 25.08 38 38 C25.46 38 12.92 38 0 38 C0 25.46 0 12.92 0 0 Z " fill="#C6C1C5" transform="translate(0,0)"/>
<path d="M0 0 C5 4 5 4 6 7 C7.09538338 8.12961412 8.19864607 9.25243352 9.3359375 10.33984375 C12.33310371 13.32997436 15.09921575 16.53461427 17.9140625 19.6953125 C19.56716633 21.52177553 21.25723087 23.26195382 23 25 C24.15625641 26.2823447 25.3015649 27.57461996 26.4375 28.875 C27.01371094 29.53242188 27.58992188 30.18984375 28.18359375 30.8671875 C30.17274269 33.20283336 32.0835037 35.60437962 34 38 C22.78 38 11.56 38 0 38 C0 25.46 0 12.92 0 0 Z " fill="#010101" transform="translate(0,0)"/>
<path d="M0 0 C0 12.54 0 25.08 0 38 C-5.71157495 36.85768501 -5.71157495 36.85768501 -8.375 34.1875 C-8.89835937 33.68605469 -9.42171875 33.18460938 -9.9609375 32.66796875 C-11 31 -11 31 -10.6640625 28.80078125 C-10.44492187 28.20652344 -10.22578125 27.61226562 -10 27 C-10.66 27 -11.32 27 -12 27 C-12.33 26.01 -12.66 25.02 -13 24 C-12.34 24 -11.68 24 -11 24 C-10.32326553 20.59679066 -10.32326553 20.59679066 -10 17 C-10.66 16.34 -11.32 15.68 -12 15 C-10.35 15.33 -8.7 15.66 -7 16 C-7 15.01 -7 14.02 -7 13 C-8.32 12.67 -9.64 12.34 -11 12 C-9.35 11.34 -7.7 10.68 -6 10 C-6.33 9.67 -6.66 9.34 -7 9 C-6.67 8.34 -6.34 7.68 -6 7 C-6.495 6.566875 -6.99 6.13375 -7.5 5.6875 C-9 4 -9 4 -9 1 C-5.72921858 0.03087958 -3.60964568 0 0 0 Z " fill="#DAD5CF" transform="translate(38,0)"/>
<path d="M0 0 C2.64 0 5.28 0 8 0 C8 0.66 8 1.32 8 2 C9.32 2.33 10.64 2.66 12 3 C11.67 3.99 11.34 4.98 11 6 C8.61435923 5.42415568 6.33317216 4.77772405 4 4 C4 4.99 4 5.98 4 7 C5.98 7 7.96 7 10 7 C10 7.66 10 8.32 10 9 C6.535 10.485 6.535 10.485 3 12 C0.69 9.03 -1.62 6.06 -4 3 C-2.68 2.67 -1.36 2.34 0 2 C0 1.34 0 0.68 0 0 Z " fill="#ACA8B6" transform="translate(12,6)"/>
<path d="M0 0 C1.27351308 2.54702616 0.80191925 3.4282945 0.0625 6.125 C-0.13214844 6.84945313 -0.32679687 7.57390625 -0.52734375 8.3203125 C-0.68332031 8.87460937 -0.83929688 9.42890625 -1 10 C-0.34 10 0.32 10 1 10 C0.67 10.99 0.34 11.98 0 13 C-1.70884005 11.37660195 -3.37446717 9.70680947 -5 8 C-5 7.34 -5 6.68 -5 6 C-5.61875 5.731875 -6.2375 5.46375 -6.875 5.1875 C-9 4 -9 4 -11 1 C-5.555 0.505 -5.555 0.505 0 0 Z " fill="#B8B2B7" transform="translate(27,17)"/>
<path d="M0 0 C2.97 0.495 2.97 0.495 6 1 C6 2.65 6 4.3 6 6 C7.32 6.33 8.64 6.66 10 7 C9.01 7.495 9.01 7.495 8 8 C8 8.66 8 9.32 8 10 C7.34 10 6.68 10 6 10 C6.33 10.99 6.66 11.98 7 13 C5.02 13.99 5.02 13.99 3 15 C2.67 13.02 2.34 11.04 2 9 C1.67 9 1.34 9 1 9 C1.20625 7.88625 1.4125 6.7725 1.625 5.625 C1.74875 4.42875 1.8725 3.2325 2 2 C1.34 1.34 0.68 0.68 0 0 Z " fill="#DBD7D0" transform="translate(26,15)"/>
<path d="M0 0 C3.96 0 7.92 0 12 0 C12 0.66 12 1.32 12 2 C10.02 2 8.04 2 6 2 C6 2.33 6 2.66 6 3 C9.63 3.33 13.26 3.66 17 4 C17 4.33 17 4.66 17 5 C16.07767578 5.07347656 16.07767578 5.07347656 15.13671875 5.1484375 C14.32847656 5.22320313 13.52023437 5.29796875 12.6875 5.375 C11.88699219 5.44460937 11.08648437 5.51421875 10.26171875 5.5859375 C7.72775559 5.89564426 7.72775559 5.89564426 5 8 C4.87625 7.071875 4.87625 7.071875 4.75 6.125 C4.18741541 3.81562433 4.18741541 3.81562433 1.9375 2.75 C1.298125 2.5025 0.65875 2.255 0 2 C0 1.34 0 0.68 0 0 Z " fill="#B6AFB2" transform="translate(1,0)"/>
<path d="M0 0 C0.33 0.66 0.66 1.32 1 2 C4.02934491 2.65772428 4.02934491 2.65772428 7 3 C5.85546875 4.51953125 5.85546875 4.51953125 4 6 C1.30078125 6.07421875 1.30078125 6.07421875 -1.6875 5.6875 C-3.17830078 5.50767578 -3.17830078 5.50767578 -4.69921875 5.32421875 C-5.45847656 5.21722656 -6.21773437 5.11023438 -7 5 C-7 5.66 -7 6.32 -7 7 C-8.65 7 -10.3 7 -12 7 C-11.67 6.01 -11.34 5.02 -11 4 C-7.37 4 -3.74 4 0 4 C0 2.68 0 1.36 0 0 Z " fill="#CBC6C7" transform="translate(19,1)"/>
<path d="M0 0 C1 2 2 4 3 6 C3.66 6.33 4.32 6.66 5 7 C4.34 8.32 3.68 9.64 3 11 C1.68 10.01 0.36 9.02 -1 8 C-0.67 6.68 -0.34 5.36 0 4 C-0.66 4 -1.32 4 -2 4 C-2.33 3.01 -2.66 2.02 -3 1 C-2.01 0.67 -1.02 0.34 0 0 Z " fill="#CAC3C3" transform="translate(28,23)"/>
<path d="M0 0 C1.5 1.125 1.5 1.125 3 3 C3.1875 6.1875 3.1875 6.1875 3 9 C1.35 8.67 -0.3 8.34 -2 8 C-2.33 7.01 -2.66 6.02 -3 5 C-1.5625 2.3125 -1.5625 2.3125 0 0 Z " fill="#D0CCCD" transform="translate(34,13)"/>
<path d="M0 0 C4.49029126 -0.36407767 4.49029126 -0.36407767 6.75 1.25 C8.12041836 3.16858571 8.6018827 4.69091968 9 7 C7.68 7 6.36 7 5 7 C5.33 5.68 5.66 4.36 6 3 C5.01 3 4.02 3 3 3 C2.67 3.66 2.34 4.32 2 5 C2 4.34 2 3.68 2 3 C1.34 3 0.68 3 0 3 C0 2.01 0 1.02 0 0 Z " fill="#C7BDBD" transform="translate(16,10)"/>
<path d="M0 0 C1.98 0 3.96 0 6 0 C6.33 0.66 6.66 1.32 7 2 C6.34 2 5.68 2 5 2 C5 2.99 5 3.98 5 5 C5.66 5 6.32 5 7 5 C6.67 5.99 6.34 6.98 6 8 C1.125 3.375 1.125 3.375 0 0 Z " fill="#8D87A0" transform="translate(8,8)"/>
<path d="M0 0 C0.33 0.66 0.66 1.32 1 2 C3.02463255 2.65213292 3.02463255 2.65213292 5 3 C4.67 3.99 4.34 4.98 4 6 C1.61435923 5.42415568 -0.66682784 4.77772405 -3 4 C-3 3.34 -3 2.68 -3 2 C-2.01 2 -1.02 2 0 2 C0 1.34 0 0.68 0 0 Z " fill="#9B98B3" transform="translate(19,6)"/>
<path d="M0 0 C-0.66 1.32 -1.32 2.64 -2 4 C-1.01 4.33 -0.02 4.66 1 5 C0.34 5 -0.32 5 -1 5 C-1 5.66 -1 6.32 -1 7 C-1.99 6.67 -2.98 6.34 -4 6 C-4 5.01 -4 4.02 -4 3 C-4.99 2.67 -5.98 2.34 -7 2 C-5.26578631 -1.46842738 -3.40984787 -1.13661596 0 0 Z " fill="#D6D1CB" transform="translate(27,6)"/>
<path d="M0 0 C3.96 0.33 7.92 0.66 12 1 C12 1.33 12 1.66 12 2 C11.38511719 2.04898437 10.77023438 2.09796875 10.13671875 2.1484375 C9.32847656 2.22320312 8.52023437 2.29796875 7.6875 2.375 C6.48673828 2.47941406 6.48673828 2.47941406 5.26171875 2.5859375 C2.72775559 2.89564426 2.72775559 2.89564426 0 5 C-0.33 4.34 -0.66 3.68 -1 3 C-0.67 2.01 -0.34 1.02 0 0 Z " fill="#8084A2" transform="translate(6,3)"/>
<path d="M0 0 C0.33 0.66 0.66 1.32 1 2 C4.02934491 2.65772428 4.02934491 2.65772428 7 3 C6.01 3.99 5.02 4.98 4 6 C2.68 5.34 1.36 4.68 0 4 C0 2.68 0 1.36 0 0 Z " fill="#A2A6C0" transform="translate(19,1)"/>
</svg>
